<svg width="51" height="36" viewBox="0 0 51 36" fill="none" xmlns="http://www.w3.org/2000/svg">
<path d="M14.0197 10.686C9.34495 11.7993 6.49372 15.8121 7.31853 18.552C8.145 21.2926 11.2654 18.1711 15.9401 17.057C20.6132 15.9422 25.0694 17.259 24.2446 14.5184C23.4189 11.7778 18.6945 9.57122 14.0197 10.686ZM10.4016 9.40878C11.8103 8.95454 11.99 6.23407 11.2397 4.39982C10.4894 2.567 8.73876 1.45078 7.33012 1.90647C5.92231 2.36288 5.389 4.21869 6.13928 6.0515C6.88956 7.88504 8.99217 9.86519 10.4016 9.40878ZM16.1488 7.99357C17.6419 7.87713 18.6059 5.29178 18.4146 3.34685C18.2241 1.40335 16.8585 -0.0765592 15.3654 0.037722C13.8723 0.154878 12.8156 1.82454 13.0069 3.76804C13.199 5.71153 14.6541 8.11 16.1488 7.99357ZM22.749 2.30538C21.2509 2.30538 20.0369 3.88663 20.0369 5.83732C20.0369 7.78944 21.2517 10.29 22.749 10.29C24.2479 10.29 25.4619 7.78944 25.4619 5.83732C25.4627 3.88591 24.2479 2.30538 22.749 2.30538ZM1.74773 7.31004C0.449234 7.9756 0.285265 9.88603 1.38419 11.5765C2.48062 13.2656 4.93933 14.8914 6.237 14.2251C7.5355 13.5588 7.18189 10.852 6.08462 9.16297C4.98736 7.47247 3.04458 6.64375 1.74773 7.31004ZM36.982 27.0052C32.3072 25.8904 27.5811 28.0977 26.7563 30.8376C25.9298 33.5782 30.3876 32.2614 35.0615 33.3762C39.7363 34.4903 42.8559 37.6118 43.6807 34.8712C44.5071 32.1313 41.6551 28.1193 36.982 27.0052ZM40.6 25.7302C42.007 26.1844 44.1113 24.2043 44.8616 22.3707C45.6119 20.5372 45.0785 18.6814 43.6707 18.2257C42.2621 17.7693 40.5131 18.8862 39.7628 20.7198C39.0125 22.5533 39.1914 25.2738 40.6 25.7302ZM34.8537 24.3121C36.3468 24.4285 37.8026 22.0308 37.9931 20.0873C38.1836 18.1438 37.1294 16.4734 35.6363 16.3569C34.1432 16.2419 32.7784 17.7226 32.5855 19.6668C32.395 21.611 33.3606 24.1956 34.8537 24.3121ZM28.251 26.6092C29.7508 26.6092 30.9648 24.1087 30.9648 22.1565C30.9648 20.2058 29.75 18.6246 28.251 18.6246C26.7521 18.6246 25.5373 20.2058 25.5373 22.158C25.5373 24.1087 26.7538 26.6092 28.251 26.6092ZM49.2531 23.6293C47.9546 22.963 46.0135 23.7917 44.9171 25.4815C43.8214 27.1713 43.467 29.8781 44.763 30.5443C46.0615 31.2106 48.5202 29.5848 49.6167 27.8958C50.7131 26.206 50.55 24.2955 49.2531 23.6293Z" fill="white"/>
</svg>
